<svg xmlns="http://www.w3.org/2000/svg" width="512" height="1024" viewBox="0 0 512 1024">
  <!-- PLACEHOLDER — replace with a real painting export (transparent PNG, same slot). -->
  <defs>
    <g id="spike">
      <path d="M 0 0 L 6 -46 L 12 0 Z" fill="#a8801f"/>
    </g>
  </defs>

  <!-- trunk bulbs, bottom to top -->
  <ellipse cx="256" cy="940" rx="118" ry="74" fill="#173f42"/>
  <ellipse cx="256" cy="812" rx="108" ry="68" fill="#1c4a4d"/>
  <ellipse cx="256" cy="692" rx="97" ry="62" fill="#173f42"/>
  <ellipse cx="256" cy="580" rx="86" ry="56" fill="#1f5054"/>
  <ellipse cx="256" cy="478" rx="74" ry="50" fill="#1c4a4d"/>
  <ellipse cx="256" cy="386" rx="62" ry="44" fill="#235659"/>

  <!-- arm branching left -->
  <ellipse cx="150" cy="560" rx="56" ry="40" transform="rotate(-25 150 560)" fill="#1c4a4d"/>
  <ellipse cx="94" cy="486" rx="48" ry="35" transform="rotate(-35 94 486)" fill="#235659"/>

  <!-- segment tick marks -->
  <g fill="#0d2628">
    <path d="M 200 930 q 8 16 16 0 z"/><path d="M 256 946 q 8 16 16 0 z"/><path d="M 312 928 q 8 16 16 0 z"/>
    <path d="M 210 806 q 8 15 16 0 z"/><path d="M 286 816 q 8 15 16 0 z"/>
    <path d="M 222 688 q 7 14 15 0 z"/><path d="M 288 696 q 7 14 15 0 z"/>
    <path d="M 232 578 q 7 13 14 0 z"/><path d="M 278 584 q 7 13 14 0 z"/>
    <path d="M 240 478 q 6 12 13 0 z"/><path d="M 240 386 q 6 12 13 0 z"/>
    <path d="M 132 556 q 7 13 14 0 z"/><path d="M 86 484 q 6 12 12 0 z"/>
  </g>

  <!-- starburst bloom on top -->
  <g transform="translate(256 240)">
    <g id="burst">
      <use href="#spike" transform="rotate(0) translate(-6 -52)"/>
      <use href="#spike" transform="rotate(24) translate(-6 -52)"/>
      <use href="#spike" transform="rotate(48) translate(-6 -52)"/>
      <use href="#spike" transform="rotate(72) translate(-6 -52)"/>
      <use href="#spike" transform="rotate(96) translate(-6 -52)"/>
      <use href="#spike" transform="rotate(120) translate(-6 -52)"/>
      <use href="#spike" transform="rotate(144) translate(-6 -52)"/>
      <use href="#spike" transform="rotate(168) translate(-6 -52)"/>
      <use href="#spike" transform="rotate(192) translate(-6 -52)"/>
      <use href="#spike" transform="rotate(216) translate(-6 -52)"/>
      <use href="#spike" transform="rotate(240) translate(-6 -52)"/>
      <use href="#spike" transform="rotate(264) translate(-6 -52)"/>
      <use href="#spike" transform="rotate(288) translate(-6 -52)"/>
      <use href="#spike" transform="rotate(312) translate(-6 -52)"/>
      <use href="#spike" transform="rotate(336) translate(-6 -52)"/>
    </g>
    <circle cx="0" cy="0" r="46" fill="#e8547a"/>
    <circle cx="0" cy="0" r="30" fill="#ef6f8e"/>
  </g>

  <!-- bloom on arm -->
  <g transform="translate(64 448) scale(0.55)">
    <use href="#burst"/>
    <circle cx="0" cy="0" r="46" fill="#e8547a"/>
  </g>
</svg>
